<svg width="300" height="200" xmlns="http://www.w3.org/2000/svg">
  <!-- Water -->
  <rect x="0" y="150" width="300" height="50" fill="#87CEFA" />
  
  <!-- Rock 1 -->
  <path d="M50,130 Q70,110 90,130 Q70,150 50,130" fill="#8B4513" />
  <path d="M50,125 Q70,105 90,125 Q70,145 50,125" fill="#A0522D" />
  
  <!-- Rock 2 -->
  <path d="M150,140 Q170,120 190,140 Q170,160 150,140" fill="#8B4513" />
  <path d="M150,135 Q170,115 190,135 Q170,155 150,135" fill="#A0522D" />
  
  <!-- Rock 3 -->
  <path d="M220,150 Q240,130 260,150 Q240,170 220,150" fill="#8B4513" />
  <path d="M220,145 Q240,125 260,145 Q240,165 220,145" fill="#A0522D" />
  
  <!-- Rock Highlights -->
  <path d="M50,130 Q60,120 80,130 Q70,140 50,130" fill="#D2B48C" opacity="0.6" />
  <path d="M150,140 Q160,130 180,140 Q170,150 150,140" fill="#D2B48C" opacity="0.6" />
  <path d="M220,150 Q230,140 250,150 Q240,160 220,150" fill="#D2B48C" opacity="0.6" />
  
  <!-- Rock Shadows -->
  <path d="M50,130 Q70,140 90,130 Q70,120 50,130" fill="#5C4033" opacity="0.4" />
  <path d="M150,140 Q170,150 190,140 Q170,130 150,140" fill="#5C4033" opacity="0.4" />
  <path d="M220,150 Q240,160 260,150 Q240,140 220,150" fill="#5C4033" opacity="0.4" />
</svg>
